<svg xmlns="http://www.w3.org/2000/svg" width="400.42" height="512" viewBox="0 0 400.42 512"><path d="M309,373.41H92.28v36.85H309ZM294.24,397H264.57V386.69h29.67ZM193.06,99.27A11.92,11.92,0,1,1,205,111.18,11.93,11.93,0,0,1,193.06,99.27Zm77.35,0a11.92,11.92,0,1,1,11.91,11.91A11.92,11.92,0,0,1,270.41,99.27ZM309,276.56H92.28v36.85H309Zm-14.76,23.57H264.57V289.84h29.67ZM354,36H44.07V471.09H354Zm-71.65,31.8A31.43,31.43,0,1,1,250.9,99.27,31.47,31.47,0,0,1,282.32,67.84Zm-77.34,0a31.43,31.43,0,1,1-31.42,31.43A31.47,31.47,0,0,1,205,67.84ZM328.51,429.76H72.78V353.91H328.51v75.85Zm0-96.85H72.78V257.06H328.51v75.85Zm0-98.2H72.78V158.86H328.51v75.85ZM309,178.36H92.28v36.85H309Zm-14.76,22.22H264.57V190.29h29.67ZM390.67,0H9.75A9.74,9.74,0,0,0,0,9.75v492.5A9.74,9.74,0,0,0,9.75,512H390.67a9.74,9.74,0,0,0,9.75-9.75V9.75A9.74,9.74,0,0,0,390.67,0Zm-9.75,492.49H19.5V19.5H380.92Z" fill="#007f00"/></svg>